<?xml version="1.0" encoding="UTF-8" standalone="no"?>
<!-- Created with Inkscape (http://www.inkscape.org/) -->

<svg
   width="499.66489mm"
   height="193.45697mm"
   viewBox="0 0 499.66489 193.45697"
   version="1.1"
   id="svg790"
   xmlns:inkscape="http://www.inkscape.org/namespaces/inkscape"
   xmlns:sodipodi="http://sodipodi.sourceforge.net/DTD/sodipodi-0.dtd"
   xmlns="http://www.w3.org/2000/svg"
   xmlns:svg="http://www.w3.org/2000/svg">
  <sodipodi:namedview
     id="namedview792"
     pagecolor="#ffffff"
     bordercolor="#000000"
     borderopacity="0.25"
     inkscape:showpageshadow="2"
     inkscape:pageopacity="0.0"
     inkscape:pagecheckerboard="0"
     inkscape:deskcolor="#d1d1d1"
     inkscape:document-units="mm"
     showgrid="false" />
  <defs
     id="defs787" />
  <g
     inkscape:label="Layer 1"
     inkscape:groupmode="layer"
     id="layer1"
     transform="translate(156.3638,10.710233)">
    <g
       id="g68"
       transform="matrix(0.59342625,0,0,0.59342625,-476.22055,-234.43193)"
       inkscape:export-filename="g68.svg"
       inkscape:export-xdpi="96"
       inkscape:export-ydpi="96">
	<g
   id="g48">
		<g
   id="g8">
			<path
   class="st0"
   d="m 618.3,610.2 c -8.5,-8.5 -8.5,-22.4 0,-31 l 29,-29 v 0 L 704.8,492.7 647.3,377 611.9,448.1 v 66.4 L 589.8,492.4 539,594.7 609.2,664.9 641.1,633 Z"
   id="path4"
   style="fill:#00bcff" />

			<path
   class="st0"
   d="m 755.6,594.7 -46.7,-93.7 -55.5,55.5 22.8,22.8 c 8.5,8.5 8.5,22.4 0,30.9 l -60.9,60.9 31.9,31.9 z"
   id="path6"
   style="fill:#00bcff" />

		</g>

		<polygon
   class="st0"
   points="611.9,448.1 704.8,492.7 647.3,377 "
   id="polygon10"
   style="fill:#00bcff" />

		<polygon
   class="st1"
   points="611.9,448.1 657.3,540.2 704.8,492.7 "
   id="polygon12"
   style="fill:#00a9ff" />

		<polygon
   class="st2"
   points="611.9,514.5 657.3,540.2 611.9,448.1 "
   id="polygon14"
   style="fill:#00a4e5" />

		<polygon
   class="st1"
   points="611.9,514.5 539,594.7 589.9,492.5 "
   id="polygon16"
   style="fill:#00a9ff" />

		<polygon
   class="st0"
   points="657.3,540.2 611.9,514.5 539,594.7 618.3,579.2 "
   id="polygon18"
   style="fill:#00bcff" />

		<path
   class="st1"
   d="M 618.3,579.2 539,594.7 641.1,633 618.2,610.1 c -8.4,-8.4 -8.4,-22.3 0.1,-30.9 z"
   id="path20"
   style="fill:#00a9ff" />

		<polygon
   class="st1"
   points="611.9,514.5 618.3,579.2 657.3,540.2 "
   id="polygon22"
   style="fill:#00a9ff" />

		<polygon
   class="st2"
   points="609.3,665 590.1,613.9 641.2,633.1 "
   id="polygon24"
   style="fill:#00a4e5" />

		<polygon
   class="st0"
   points="665.8,544.1 708.9,501 755.6,594.7 "
   id="polygon26"
   style="fill:#00bcff" />

		<path
   class="st2"
   d="m 681.3,586.9 v 0 l -15.4,-42.9 -12.4,12.4 22.8,22.8 c 2.3,2.3 3.9,4.9 5,7.7 z"
   id="path28"
   style="fill:#00a4e5" />

		<polygon
   class="st1"
   points="710.7,590 708.9,641.4 755.6,594.7 "
   id="polygon30"
   style="fill:#00a9ff" />

		<polygon
   class="st1"
   points="708.9,501 708.9,568.4 755.6,594.7 "
   id="polygon32"
   style="fill:#00a9ff" />

		<polygon
   class="st0"
   points="663.8,623 647.3,703 708.9,641.4 "
   id="polygon34"
   style="fill:#00bcff" />

		<polygon
   class="st1"
   points="681.3,587 708.9,641.4 755.6,594.7 "
   id="polygon36"
   style="fill:#00a9ff" />

		<polygon
   class="st0"
   points="717.8,590 708.9,641.4 755.6,594.7 "
   id="polygon38"
   style="fill:#00bcff" />

		<polygon
   class="st2"
   points="665.8,544.1 681.3,587 755.6,594.7 "
   id="polygon40"
   style="fill:#00a4e5" />

		<polygon
   class="st1"
   points="708.9,568.4 681.3,587 665.8,544.1 "
   id="polygon42"
   style="fill:#00a9ff" />

		<polygon
   class="st1"
   points="663.8,623 678.1,672.2 708.9,641.4 "
   id="polygon44"
   style="fill:#00a9ff" />

		<polygon
   class="st2"
   points="663.8,623 647.3,703 615.4,671.1 "
   id="polygon46"
   style="fill:#00a4e5" />

	</g>

	<g
   id="g66">
		<path
   class="st3"
   d="m 804.8,588.9 c -2.1,-1.5 -3.4,-3.5 -3.4,-6 0,-3.4 2.6,-6.4 6.6,-6.4 1.5,0 3.1,0.6 4.3,1.4 7.5,4.8 16,8.1 25.9,8.1 14.7,0 23.3,-7.1 23.3,-17.8 0,-8.9 -4.9,-14.4 -21.8,-17 l -5.1,-0.8 c -21,-3.2 -30.8,-12.6 -30.8,-29 0,-18.6 13.2,-30.4 34.1,-30.4 11.2,0 21.3,3.2 27.6,7.1 2.6,1.7 3.7,3.7 3.7,6 0,3.4 -2.6,6.1 -6.1,6.1 -1.4,0 -3.1,-0.6 -4.5,-1.2 -6.6,-2.9 -13.5,-5.2 -21.2,-5.2 -13.2,0 -19.8,7.2 -19.8,16.9 0,8.7 5.4,14.3 21.6,16.7 l 5.1,0.8 c 21,3.2 31,12.6 31,29.3 0,18.1 -12.9,31.3 -38.2,31.3 -13.4,-0.1 -24.9,-4.9 -32.3,-9.9 z"
   id="path50"
   style="fill:#063545" />

		<path
   class="st3"
   d="m 894.1,578.7 c -1.5,-4.6 -2.5,-9.8 -2.5,-18.6 0,-8.7 0.8,-14 2.3,-18.6 4.1,-12.7 14.7,-19.8 28.7,-19.8 14.4,0 24.9,7.1 28.8,19.6 1.7,4.9 2.5,10.6 2.5,17.8 0,2.9 -2,4.9 -5.1,4.9 h -43.1 c -0.6,0 -0.9,0.3 -0.9,0.9 0,3.5 0.3,6 1.2,8.9 2.8,8.4 9.5,12.7 18.6,12.7 7.2,0 12.1,-2.1 17.6,-6.3 1.5,-1.2 2.9,-1.8 4.4,-1.8 3.1,0 5.4,2.3 5.4,5.4 0,1.8 -0.8,3.4 -2,4.6 -6.3,5.8 -15,10.1 -26.4,10.1 -15.1,0.2 -25.4,-6.9 -29.5,-19.8 z m 45.7,-24.8 c 0.6,0 0.9,-0.3 0.9,-0.9 0,-3.4 -0.3,-6 -1.1,-8.3 -2.5,-7.4 -8.6,-11.5 -16.9,-11.5 -8.3,0 -14.4,4.1 -16.9,11.5 -0.8,2.3 -1.1,4.9 -1.1,8.3 0,0.6 0.3,0.9 0.9,0.9 z"
   id="path52"
   style="fill:#063545" />

		<path
   class="st3"
   d="m 992.3,597.8 c -13.2,0 -18,-6.4 -18,-19.6 v -79.3 c 0,-4.3 2.8,-6.9 6.4,-6.9 3.7,0 6.4,2.6 6.4,6.9 v 78.6 c 0,6.1 2,8.4 7.1,8.4 3.7,0 6,2.5 6,6 0,3.5 -2.3,6 -6.6,6 h -1.3 z"
   id="path54"
   style="fill:#063545" />

		<path
   class="st3"
   d="m 1015.5,578.7 c -1.5,-4.6 -2.5,-9.8 -2.5,-18.6 0,-8.7 0.8,-14 2.3,-18.6 4.1,-12.7 14.7,-19.8 28.7,-19.8 14.4,0 24.9,7.1 28.8,19.6 1.7,4.9 2.5,10.6 2.5,17.8 0,2.9 -2,4.9 -5.1,4.9 h -43.1 c -0.6,0 -0.9,0.3 -0.9,0.9 0,3.5 0.3,6 1.2,8.9 2.8,8.4 9.5,12.7 18.6,12.7 7.2,0 12.1,-2.1 17.6,-6.3 1.5,-1.2 2.9,-1.8 4.4,-1.8 3.1,0 5.4,2.3 5.4,5.4 0,1.8 -0.8,3.4 -2,4.6 -6.3,5.8 -15,10.1 -26.4,10.1 -15.1,0.2 -25.4,-6.9 -29.5,-19.8 z m 45.7,-24.8 c 0.6,0 0.9,-0.3 0.9,-0.9 0,-3.4 -0.3,-6 -1.1,-8.3 -2.5,-7.4 -8.6,-11.5 -16.9,-11.5 -8.3,0 -14.4,4.1 -16.9,11.5 -0.8,2.3 -1.1,4.9 -1.1,8.3 0,0.6 0.3,0.9 0.9,0.9 z"
   id="path56"
   style="fill:#063545" />

		<path
   class="st3"
   d="m 1096,529.6 c 0,-4.3 2.8,-6.9 6.4,-6.9 3.7,0 6.4,2.6 6.4,6.9 v 2.1 h 0.2 c 3.5,-5.7 10.6,-10 20.6,-10 16,0 25.5,10.9 25.5,27.6 v 41.4 c 0,4.3 -2.8,6.9 -6.4,6.9 -3.7,0 -6.4,-2.6 -6.4,-6.9 v -38.4 c 0,-11.8 -5.4,-18.7 -16.4,-18.7 -10,0 -16.9,7.1 -16.9,18 v 39.1 c 0,4.3 -2.8,6.9 -6.4,6.9 -3.7,0 -6.4,-2.6 -6.4,-6.9 v -61.1 z"
   id="path58"
   style="fill:#063545" />

		<path
   class="st3"
   d="m 1224,590.9 v -2 h -0.2 c -3.5,5.8 -10,9.8 -20.9,9.8 -12.4,0 -21.5,-6.9 -25.3,-18.4 -1.8,-5.8 -2.6,-11.7 -2.6,-20.1 0,-8.3 0.8,-14.1 2.6,-19.9 3.8,-11.5 12.9,-18.4 25.3,-18.4 11,0 17.5,4.1 20.9,9.8 h 0.2 v -32.8 c 0,-4.3 2.8,-6.9 6.4,-6.9 3.7,0 6.4,2.6 6.4,6.9 V 591 c 0,4.3 -2.8,6.9 -6.4,6.9 -3.6,-0.1 -6.4,-2.7 -6.4,-7 z m -1.7,-15.7 c 1.4,-4 1.7,-8.6 1.7,-15 0,-6.3 -0.3,-10.9 -1.7,-14.9 -2.5,-7.4 -8,-11.5 -16.3,-11.5 -8.1,0 -13.7,4.1 -16.1,11.5 -1.4,4 -1.7,8.6 -1.7,14.9 0,6.4 0.3,11 1.7,15 2.5,7.4 8,11.5 16.1,11.5 8.3,0 13.9,-4.1 16.3,-11.5 z"
   id="path60"
   style="fill:#063545" />

		<path
   class="st3"
   d="m 1262.1,590.9 v -61.2 c 0,-4.3 2.8,-6.9 6.4,-6.9 3.7,0 6.4,2.6 6.4,6.9 v 3.4 h 0.2 c 3.1,-6.6 9.8,-11.2 18.9,-11.2 5.1,0 8.4,1.2 10.9,2.6 2.6,1.4 3.7,3.4 3.7,5.5 0,3.7 -2.6,6.4 -6.4,6.4 -0.9,0 -2.1,-0.3 -3.2,-0.8 -2.8,-1.1 -5.4,-1.8 -8.4,-1.8 -11,0 -15.5,9.2 -15.5,21.5 v 35.6 c 0,4.3 -2.8,6.9 -6.4,6.9 -3.9,0 -6.6,-2.6 -6.6,-6.9 z"
   id="path62"
   style="fill:#063545" />

		<path
   class="st3"
   d="m 1381,591.6 c 0,3.5 -2.8,6.1 -6.6,6.1 -2.3,0 -4.1,-1.1 -5.7,-3.2 l -2.9,-4.6 h -0.2 c -4.9,5.5 -11.8,8.7 -22.6,8.7 -16.4,0 -25.9,-8.1 -25.9,-22.1 0,-15.2 10.4,-22.7 28.7,-22.7 h 16.7 c 0.6,0 0.9,-0.3 0.9,-0.9 v -3.5 c 0,-10.3 -4.8,-16.1 -17.6,-16.1 -5.7,0 -11.5,1.8 -15,3.7 -1.2,0.6 -2.6,1.1 -3.7,1.1 -3.4,0 -5.5,-2.1 -5.5,-5.5 0,-2 0.9,-4 3.1,-5.2 4.6,-3.1 12.3,-5.5 22.4,-5.5 19.6,0 28.8,9.4 28.8,27.5 v 26.4 c 0,3.8 0.3,5.4 1.4,7.5 l 2.6,4.8 c 0.6,0.9 1.1,2.3 1.1,3.5 z m -17.5,-18.4 v -8.1 c 0,-0.6 -0.3,-0.9 -0.9,-0.9 h -14.7 c -12.6,0 -18.3,3.7 -18.3,12 0,7.7 5.5,11.5 15.3,11.5 11.4,-0.1 18.6,-5.4 18.6,-14.5 z"
   id="path64"
   style="fill:#063545" />

	</g>

</g>
  </g>
</svg>
