<?xml version="1.0" encoding="utf-8"?>
<!-- Generator: Adobe Illustrator 25.0.0, SVG Export Plug-In . SVG Version: 6.00 Build 0)  -->
<svg version="1.1" id="Layer_1" xmlns="http://www.w3.org/2000/svg" xmlns:xlink="http://www.w3.org/1999/xlink" x="0px" y="0px"
	 viewBox="0 0 1920 1080" style="enable-background:new 0 0 1920 1080;" xml:space="preserve">
<style type="text/css">
	.st0{fill:#FFFFFF;}
</style>
<g>
	<g>
		<path class="st0" d="M804.8,588.9c-2.1-1.5-3.4-3.5-3.4-6c0-3.4,2.6-6.4,6.6-6.4c1.5,0,3.1,0.6,4.3,1.4c7.5,4.8,16,8.1,25.9,8.1
			c14.7,0,23.3-7.1,23.3-17.8c0-8.9-4.9-14.4-21.8-17l-5.1-0.8c-21-3.2-30.8-12.6-30.8-29c0-18.6,13.2-30.4,34.1-30.4
			c11.2,0,21.3,3.2,27.6,7.1c2.6,1.7,3.7,3.7,3.7,6c0,3.4-2.6,6.1-6.1,6.1c-1.4,0-3.1-0.6-4.5-1.2c-6.6-2.9-13.5-5.2-21.2-5.2
			c-13.2,0-19.8,7.2-19.8,16.9c0,8.7,5.4,14.3,21.6,16.7l5.1,0.8c21,3.2,31,12.6,31,29.3c0,18.1-12.9,31.3-38.2,31.3
			C823.7,598.7,812.2,593.9,804.8,588.9z"/>
		<path class="st0" d="M894.1,578.7c-1.5-4.6-2.5-9.8-2.5-18.6c0-8.7,0.8-14,2.3-18.6c4.1-12.7,14.7-19.8,28.7-19.8
			c14.4,0,24.9,7.1,28.8,19.6c1.7,4.9,2.5,10.6,2.5,17.8c0,2.9-2,4.9-5.1,4.9h-43.1c-0.6,0-0.9,0.3-0.9,0.9c0,3.5,0.3,6,1.2,8.9
			c2.8,8.4,9.5,12.7,18.6,12.7c7.2,0,12.1-2.1,17.6-6.3c1.5-1.2,2.9-1.8,4.4-1.8c3.1,0,5.4,2.3,5.4,5.4c0,1.8-0.8,3.4-2,4.6
			c-6.3,5.8-15,10.1-26.4,10.1C908.5,598.7,898.2,591.6,894.1,578.7z M939.8,553.9c0.6,0,0.9-0.3,0.9-0.9c0-3.4-0.3-6-1.1-8.3
			c-2.5-7.4-8.6-11.5-16.9-11.5c-8.3,0-14.4,4.1-16.9,11.5c-0.8,2.3-1.1,4.9-1.1,8.3c0,0.6,0.3,0.9,0.9,0.9H939.8z"/>
		<path class="st0" d="M992.3,597.8c-13.2,0-18-6.4-18-19.6v-79.3c0-4.3,2.8-6.9,6.4-6.9c3.7,0,6.4,2.6,6.4,6.9v78.6
			c0,6.1,2,8.4,7.1,8.4c3.7,0,6,2.5,6,6s-2.3,6-6.6,6H992.3z"/>
		<path class="st0" d="M1015.5,578.7c-1.5-4.6-2.5-9.8-2.5-18.6c0-8.7,0.8-14,2.3-18.6c4.1-12.7,14.7-19.8,28.7-19.8
			c14.4,0,24.9,7.1,28.8,19.6c1.7,4.9,2.5,10.6,2.5,17.8c0,2.9-2,4.9-5.1,4.9h-43.1c-0.6,0-0.9,0.3-0.9,0.9c0,3.5,0.3,6,1.2,8.9
			c2.8,8.4,9.5,12.7,18.6,12.7c7.2,0,12.1-2.1,17.6-6.3c1.5-1.2,2.9-1.8,4.4-1.8c3.1,0,5.4,2.3,5.4,5.4c0,1.8-0.8,3.4-2,4.6
			c-6.3,5.8-15,10.1-26.4,10.1C1029.9,598.7,1019.6,591.6,1015.5,578.7z M1061.2,553.9c0.6,0,0.9-0.3,0.9-0.9c0-3.4-0.3-6-1.1-8.3
			c-2.5-7.4-8.6-11.5-16.9-11.5s-14.4,4.1-16.9,11.5c-0.8,2.3-1.1,4.9-1.1,8.3c0,0.6,0.3,0.9,0.9,0.9H1061.2z"/>
		<path class="st0" d="M1096,529.6c0-4.3,2.8-6.9,6.4-6.9c3.7,0,6.4,2.6,6.4,6.9v2.1h0.2c3.5-5.7,10.6-10,20.6-10
			c16,0,25.5,10.9,25.5,27.6v41.4c0,4.3-2.8,6.9-6.4,6.9c-3.7,0-6.4-2.6-6.4-6.9v-38.4c0-11.8-5.4-18.7-16.4-18.7
			c-10,0-16.9,7.1-16.9,18v39.1c0,4.3-2.8,6.9-6.4,6.9c-3.7,0-6.4-2.6-6.4-6.9V529.6z"/>
		<path class="st0" d="M1224,590.9v-2h-0.2c-3.5,5.8-10,9.8-20.9,9.8c-12.4,0-21.5-6.9-25.3-18.4c-1.8-5.8-2.6-11.7-2.6-20.1
			c0-8.3,0.8-14.1,2.6-19.9c3.8-11.5,12.9-18.4,25.3-18.4c11,0,17.5,4.1,20.9,9.8h0.2v-32.8c0-4.3,2.8-6.9,6.4-6.9
			c3.7,0,6.4,2.6,6.4,6.9v92.1c0,4.3-2.8,6.9-6.4,6.9C1226.8,597.8,1224,595.2,1224,590.9z M1222.3,575.2c1.4-4,1.7-8.6,1.7-15
			c0-6.3-0.3-10.9-1.7-14.9c-2.5-7.4-8-11.5-16.3-11.5c-8.1,0-13.7,4.1-16.1,11.5c-1.4,4-1.7,8.6-1.7,14.9c0,6.4,0.3,11,1.7,15
			c2.5,7.4,8,11.5,16.1,11.5C1214.3,586.7,1219.9,582.6,1222.3,575.2z"/>
		<path class="st0" d="M1262.1,590.9v-61.2c0-4.3,2.8-6.9,6.4-6.9c3.7,0,6.4,2.6,6.4,6.9v3.4h0.2c3.1-6.6,9.8-11.2,18.9-11.2
			c5.1,0,8.4,1.2,10.9,2.6c2.6,1.4,3.7,3.4,3.7,5.5c0,3.7-2.6,6.4-6.4,6.4c-0.9,0-2.1-0.3-3.2-0.8c-2.8-1.1-5.4-1.8-8.4-1.8
			c-11,0-15.5,9.2-15.5,21.5v35.6c0,4.3-2.8,6.9-6.4,6.9C1264.8,597.8,1262.1,595.2,1262.1,590.9z"/>
		<path class="st0" d="M1381,591.6c0,3.5-2.8,6.1-6.6,6.1c-2.3,0-4.1-1.1-5.7-3.2l-2.9-4.6h-0.2c-4.9,5.5-11.8,8.7-22.6,8.7
			c-16.4,0-25.9-8.1-25.9-22.1c0-15.2,10.4-22.7,28.7-22.7h16.7c0.6,0,0.9-0.3,0.9-0.9v-3.5c0-10.3-4.8-16.1-17.6-16.1
			c-5.7,0-11.5,1.8-15,3.7c-1.2,0.6-2.6,1.1-3.7,1.1c-3.4,0-5.5-2.1-5.5-5.5c0-2,0.9-4,3.1-5.2c4.6-3.1,12.3-5.5,22.4-5.5
			c19.6,0,28.8,9.4,28.8,27.5v26.4c0,3.8,0.3,5.4,1.4,7.5l2.6,4.8C1380.5,589,1381,590.4,1381,591.6z M1363.5,573.2v-8.1
			c0-0.6-0.3-0.9-0.9-0.9h-14.7c-12.6,0-18.3,3.7-18.3,12c0,7.7,5.5,11.5,15.3,11.5C1356.3,587.6,1363.5,582.3,1363.5,573.2z"/>
	</g>
	<g>
		<path class="st0" d="M618.3,610.2c-8.5-8.5-8.5-22.4,0-31l29-29l0,0l57.5-57.5L647.3,377l-35.4,71.1v66.4l-22.1-22.1L539,594.7
			l70.2,70.2l31.9-31.9L618.3,610.2z"/>
		<path class="st0" d="M755.6,594.7L708.9,501l-55.5,55.5l22.8,22.8c8.5,8.5,8.5,22.4,0,30.9l-60.9,60.9l31.9,31.9L755.6,594.7z"/>
	</g>
</g>
</svg>
