<?xml version="1.0" encoding="utf-8"?>
<!-- Generator: Adobe Illustrator 25.0.0, SVG Export Plug-In . SVG Version: 6.00 Build 0)  -->
<svg version="1.1" id="Layer_1" xmlns="http://www.w3.org/2000/svg" xmlns:xlink="http://www.w3.org/1999/xlink" x="0px" y="0px"
	 viewBox="0 0 1920 1080" style="enable-background:new 0 0 1920 1080;" xml:space="preserve">
<style type="text/css">
	.st0{fill:#FFFFFF;}
</style>
<g>
	<g>
		<path class="st0" d="M931.1,534.4c-8.5-8.5-8.5-22.3,0-30.8l28.9-28.9l0,0l57.3-57.3L960,302l-35.2,70.9v66.2l-22-22L852.1,519
			l70,70l31.8-31.8L931.1,534.4z"/>
		<path class="st0" d="M1067.9,519l-46.5-93.4l-55.3,55.3l22.7,22.7c8.5,8.5,8.5,22.3,0,30.8l-60.7,60.7l31.8,31.8L1067.9,519z"/>
	</g>
	<g>
		<path class="st0" d="M674.6,768.2c-2.1-1.5-3.4-3.5-3.4-6c0-3.4,2.6-6.4,6.6-6.4c1.5,0,3.1,0.6,4.3,1.4c7.5,4.7,15.9,8.1,25.8,8.1
			c14.7,0,23.2-7,23.2-17.7c0-8.9-4.9-14.4-21.7-17l-5-0.8c-20.9-3.2-30.7-12.5-30.7-28.9c0-18.5,13.2-30.3,33.9-30.3
			c11.2,0,21.3,3.2,27.5,7c2.6,1.7,3.7,3.7,3.7,6c0,3.4-2.6,6.1-6.1,6.1c-1.4,0-3.1-0.6-4.4-1.2c-6.6-2.9-13.5-5.2-21.1-5.2
			c-13.2,0-19.7,7.2-19.7,16.8c0,8.7,5.4,14.2,21.6,16.7l5,0.8c20.9,3.2,30.9,12.5,30.9,29.2c0,18-12.8,31.2-38.1,31.2
			C693.4,778,681.9,773.3,674.6,768.2z"/>
		<path class="st0" d="M763.6,758.1c-1.5-4.6-2.4-9.8-2.4-18.5c0-8.7,0.8-13.9,2.3-18.5c4.1-12.7,14.7-19.7,28.6-19.7
			c14.4,0,24.8,7,28.7,19.6c1.7,4.9,2.4,10.6,2.4,17.7c0,2.9-2,4.9-5,4.9h-43c-0.6,0-0.9,0.3-0.9,0.9c0,3.5,0.3,6,1.2,8.9
			c2.8,8.4,9.5,12.7,18.5,12.7c7.2,0,12.1-2.1,17.6-6.3c1.5-1.2,2.9-1.8,4.4-1.8c3.1,0,5.4,2.3,5.4,5.4c0,1.8-0.8,3.4-2,4.6
			c-6.3,5.8-15,10.1-26.3,10.1C778,778,767.7,771,763.6,758.1z M809.2,733.3c0.6,0,0.9-0.3,0.9-0.9c0-3.4-0.3-6-1.1-8.3
			c-2.4-7.3-8.6-11.5-16.8-11.5s-14.4,4.1-16.8,11.5c-0.8,2.3-1.1,4.9-1.1,8.3c0,0.6,0.3,0.9,0.9,0.9H809.2z"/>
		<path class="st0" d="M861.4,777.1c-13.2,0-17.9-6.4-17.9-19.6v-79.1c0-4.3,2.8-6.9,6.4-6.9c3.7,0,6.4,2.6,6.4,6.9v78.3
			c0,6.1,2,8.4,7,8.4c3.7,0,6,2.4,6,6c0,3.5-2.3,6-6.6,6H861.4z"/>
		<path class="st0" d="M884.5,758.1c-1.5-4.6-2.4-9.8-2.4-18.5c0-8.7,0.8-13.9,2.3-18.5c4.1-12.7,14.7-19.7,28.6-19.7
			c14.4,0,24.8,7,28.7,19.6c1.7,4.9,2.4,10.6,2.4,17.7c0,2.9-2,4.9-5,4.9h-43c-0.6,0-0.9,0.3-0.9,0.9c0,3.5,0.3,6,1.2,8.9
			c2.8,8.4,9.5,12.7,18.5,12.7c7.2,0,12.1-2.1,17.6-6.3c1.5-1.2,2.9-1.8,4.4-1.8c3.1,0,5.4,2.3,5.4,5.4c0,1.8-0.8,3.4-2,4.6
			c-6.3,5.8-15,10.1-26.3,10.1C898.9,778,888.7,771,884.5,758.1z M930.1,733.3c0.6,0,0.9-0.3,0.9-0.9c0-3.4-0.3-6-1.1-8.3
			c-2.4-7.3-8.6-11.5-16.8-11.5s-14.4,4.1-16.8,11.5c-0.8,2.3-1.1,4.9-1.1,8.3c0,0.6,0.3,0.9,0.9,0.9H930.1z"/>
		<path class="st0" d="M964.8,709.2c0-4.3,2.8-6.9,6.4-6.9c3.7,0,6.4,2.6,6.4,6.9v2.1h0.2c3.5-5.7,10.6-9.9,20.5-9.9
			c15.9,0,25.4,10.9,25.4,27.5v41.3c0,4.3-2.8,6.9-6.4,6.9c-3.7,0-6.4-2.6-6.4-6.9V732c0-11.8-5.4-18.7-16.4-18.7
			c-9.9,0-16.8,7-16.8,17.9v39c0,4.3-2.8,6.9-6.4,6.9c-3.7,0-6.4-2.6-6.4-6.9V709.2z"/>
		<path class="st0" d="M1092.3,770.2v-2h-0.2c-3.5,5.8-9.9,9.8-20.8,9.8c-12.4,0-21.4-6.9-25.2-18.3c-1.8-5.8-2.6-11.6-2.6-20
			c0-8.3,0.8-14.1,2.6-19.9c3.8-11.5,12.8-18.4,25.2-18.4c11,0,17.4,4.1,20.8,9.8h0.2v-32.7c0-4.3,2.8-6.9,6.4-6.9
			c3.7,0,6.4,2.6,6.4,6.9v91.7c0,4.3-2.8,6.9-6.4,6.9C1095.1,777.1,1092.3,774.5,1092.3,770.2z M1090.7,754.6c1.4-4,1.7-8.6,1.7-15
			c0-6.3-0.3-10.9-1.7-14.8c-2.4-7.3-8-11.5-16.2-11.5c-8.1,0-13.6,4.1-16.1,11.5c-1.4,4-1.7,8.6-1.7,14.8c0,6.4,0.3,11,1.7,15
			c2.4,7.3,8,11.5,16.1,11.5C1082.7,766.1,1088.2,761.9,1090.7,754.6z"/>
		<path class="st0" d="M1130.3,770.2v-61c0-4.3,2.8-6.9,6.4-6.9c3.7,0,6.4,2.6,6.4,6.9v3.4h0.2c3.1-6.6,9.8-11.2,18.8-11.2
			c5,0,8.4,1.2,10.9,2.6c2.6,1.4,3.7,3.4,3.7,5.5c0,3.7-2.6,6.4-6.4,6.4c-0.9,0-2.1-0.3-3.2-0.8c-2.8-1.1-5.4-1.8-8.4-1.8
			c-11,0-15.4,9.2-15.4,21.4v35.5c0,4.3-2.8,6.9-6.4,6.9C1133,777.1,1130.3,774.5,1130.3,770.2z"/>
		<path class="st0" d="M1248.8,771c0,3.5-2.8,6.1-6.6,6.1c-2.3,0-4.1-1.1-5.7-3.2l-2.9-4.6h-0.2c-4.9,5.5-11.8,8.7-22.5,8.7
			c-16.4,0-25.8-8.1-25.8-22c0-15.1,10.4-22.6,28.6-22.6h16.7c0.6,0,0.9-0.3,0.9-0.9v-3.5c0-10.2-4.7-16.1-17.6-16.1
			c-5.7,0-11.5,1.8-15,3.7c-1.2,0.6-2.6,1.1-3.7,1.1c-3.4,0-5.5-2.1-5.5-5.5c0-2,0.9-4,3.1-5.2c4.6-3.1,12.2-5.5,22.3-5.5
			c19.6,0,28.7,9.3,28.7,27.4v26.3c0,3.8,0.3,5.4,1.4,7.5l2.6,4.7C1248.3,768.4,1248.8,769.7,1248.8,771z M1231.3,752.6v-8.1
			c0-0.6-0.3-0.9-0.9-0.9h-14.7c-12.5,0-18.2,3.7-18.2,11.9c0,7.6,5.5,11.5,15.3,11.5C1224.2,767,1231.3,761.6,1231.3,752.6z"/>
	</g>
</g>
</svg>
